<svg xmlns="http://www.w3.org/2000/svg" version="1.1" xmlns:xlink="http://www.w3.org/1999/xlink" xmlns:svgjs="http://svgjs.dev/svgjs" width="1000" height="391" viewBox="0 0 1000 391"><g transform="matrix(1,0,0,1,-0.6060606060606233,0.6089157924345727)"><svg viewBox="0 0 396 155" data-background-color="#1b4571" preserveAspectRatio="xMidYMid meet" height="391" width="1000" xmlns="http://www.w3.org/2000/svg" xmlns:xlink="http://www.w3.org/1999/xlink"><defs></defs><g id="tight-bounds" transform="matrix(1,0,0,1,0.2400000000000091,-0.24138605582444939)"><svg viewBox="0 0 395.52 155.48277153738792" height="155.48277153738792" width="395.52"><g><svg viewBox="0 0 397.4975999999999 156.26018539507484" height="155.48277153738792" width="395.52"><g><rect width="397.4975999999999" height="2.970704231201307" x="0" y="87.68906747996303" fill="#ffffff" opacity="1" stroke-width="0" stroke="transparent" fill-opacity="1" class="rect-o-0" data-fill-palette-color="secondary" rx="1%" id="o-0" data-palette-color="#ffffff"></rect></g><g transform="matrix(1,0,0,1,0.9887999999999693,98.43648435828818)"><svg viewBox="0 0 395.52 57.82370103678667" height="57.82370103678667" width="395.52"><g><svg viewBox="0 0 395.52 57.82370103678667" height="57.82370103678667" width="395.52"><g><svg viewBox="0 0 395.52 32.941563933325874" height="32.941563933325874" width="395.52"><g transform="matrix(1,0,0,1,0,0)"><svg width="395.52" viewBox="3 -36.83000183105469 446.9100036621094 37.230003356933594" height="32.941563933325874" data-palette-color="#ffffff"><path d="M11.45-36.43L11.45-6.75 24.95-6.75 24.95 0 3 0 3-36.43 11.45-36.43ZM38.2-36.43L38.2 0 29.7 0 29.7-36.43 38.2-36.43ZM42.45-36.43L71.4-36.43 71.4-29.73 61.15-29.73 61.15 0 52.7 0 52.7-29.73 42.45-29.73 42.45-36.43ZM109.34-18.23L109.34-18.23Q109.34-14.28 107.98-10.88 106.62-7.48 104.14-4.96 101.67-2.45 98.18-1.03 94.69 0.4 90.44 0.4L90.44 0.4Q86.19 0.4 82.69-1.03 79.19-2.45 76.71-4.96 74.22-7.48 72.86-10.88 71.49-14.28 71.49-18.23L71.49-18.23Q71.49-22.18 72.86-25.58 74.22-28.98 76.71-31.48 79.19-33.98 82.69-35.4 86.19-36.83 90.44-36.83L90.44-36.83Q94.69-36.83 98.18-35.39 101.67-33.95 104.14-31.45 106.62-28.95 107.98-25.55 109.34-22.15 109.34-18.23ZM100.69-18.23L100.69-18.23Q100.69-20.93 99.99-23.09 99.29-25.25 97.98-26.75 96.67-28.25 94.77-29.05 92.87-29.85 90.44-29.85L90.44-29.85Q87.99-29.85 86.08-29.05 84.17-28.25 82.86-26.75 81.54-25.25 80.84-23.09 80.14-20.93 80.14-18.23L80.14-18.23Q80.14-15.5 80.84-13.34 81.54-11.18 82.86-9.68 84.17-8.18 86.08-7.39 87.99-6.6 90.44-6.6L90.44-6.6Q92.87-6.6 94.77-7.39 96.67-8.18 97.98-9.68 99.29-11.18 99.99-13.34 100.69-15.5 100.69-18.23ZM123.99-13.48L121.84-13.48 121.84 0 113.39 0 113.39-36.43 125.24-36.43Q129.19-36.43 131.98-35.61 134.77-34.8 136.53-33.35 138.29-31.9 139.09-29.93 139.89-27.95 139.89-25.63L139.89-25.63Q139.89-23.85 139.42-22.28 138.94-20.7 138-19.36 137.07-18.03 135.7-16.98 134.34-15.93 132.57-15.25L132.57-15.25Q133.42-14.83 134.15-14.2 134.89-13.58 135.44-12.68L135.44-12.68 143.19 0 135.54 0Q133.42 0 132.49-1.6L132.49-1.6 126.44-12.18Q126.04-12.88 125.5-13.18 124.97-13.48 123.99-13.48L123.99-13.48ZM121.84-30.1L121.84-19.3 125.24-19.3Q126.97-19.3 128.18-19.74 129.39-20.18 130.17-20.95 130.94-21.73 131.29-22.76 131.64-23.8 131.64-25L131.64-25Q131.64-27.4 130.08-28.75 128.52-30.1 125.24-30.1L125.24-30.1 121.84-30.1ZM166.44-36.43L180.54 0 173.99 0Q172.89 0 172.18-0.51 171.46-1.03 171.19-1.83L171.19-1.83 169.04-8.18 155.19-8.18 153.04-1.83Q152.79-1.13 152.06-0.56 151.34 0 150.29 0L150.29 0 143.69 0 157.79-36.43 166.44-36.43ZM160.49-23.85L157.14-13.93 167.09-13.93 163.74-23.9Q163.41-24.85 162.98-26.14 162.54-27.43 162.11-28.93L162.11-28.93Q161.71-27.4 161.29-26.1 160.86-24.8 160.49-23.85L160.49-23.85ZM191.94-36.43L191.94-6.75 205.44-6.75 205.44 0 183.49 0 183.49-36.43 191.94-36.43ZM223.53-36.43L223.53-36.43Q224.08-36.43 224.46-36.38 224.83-36.33 225.13-36.19 225.43-36.05 225.71-35.8 225.98-35.55 226.33-35.13L226.33-35.13 243.63-13.25Q243.53-14.3 243.48-15.29 243.43-16.28 243.43-17.15L243.43-17.15 243.43-36.43 250.88-36.43 250.88 0 246.48 0Q245.51 0 244.83-0.3 244.16-0.6 243.53-1.4L243.53-1.4 226.36-23.1Q226.43-22.15 226.48-21.24 226.53-20.33 226.53-19.53L226.53-19.53 226.53 0 219.08 0 219.08-36.43 223.53-36.43ZM292.83-18.23L292.83-18.23Q292.83-14.28 291.47-10.88 290.1-7.48 287.63-4.96 285.15-2.45 281.67-1.03 278.18 0.4 273.93 0.4L273.93 0.4Q269.68 0.4 266.18-1.03 262.68-2.45 260.19-4.96 257.7-7.48 256.34-10.88 254.98-14.28 254.98-18.23L254.98-18.23Q254.98-22.18 256.34-25.58 257.7-28.98 260.19-31.48 262.68-33.98 266.18-35.4 269.68-36.83 273.93-36.83L273.93-36.83Q278.18-36.83 281.67-35.39 285.15-33.95 287.63-31.45 290.1-28.95 291.47-25.55 292.83-22.15 292.83-18.23ZM284.18-18.23L284.18-18.23Q284.18-20.93 283.48-23.09 282.78-25.25 281.47-26.75 280.15-28.25 278.25-29.05 276.35-29.85 273.93-29.85L273.93-29.85Q271.48-29.85 269.57-29.05 267.65-28.25 266.34-26.75 265.03-25.25 264.33-23.09 263.63-20.93 263.63-18.23L263.63-18.23Q263.63-15.5 264.33-13.34 265.03-11.18 266.34-9.68 267.65-8.18 269.57-7.39 271.48-6.6 273.93-6.6L273.93-6.6Q276.35-6.6 278.25-7.39 280.15-8.18 281.47-9.68 282.78-11.18 283.48-13.34 284.18-15.5 284.18-18.23ZM292.88-36.43L321.83-36.43 321.83-29.73 311.58-29.73 311.58 0 303.13 0 303.13-29.73 292.88-29.73 292.88-36.43ZM334.57-36.43L334.57 0 326.07 0 326.07-36.43 334.57-36.43ZM365.8-9.43L365.8-9.43Q366.1-9.43 366.4-9.31 366.7-9.2 366.97-8.93L366.97-8.93 370.32-5.4Q368.12-2.53 364.81-1.06 361.5 0.4 356.97 0.4L356.97 0.4Q352.82 0.4 349.53-1.01 346.25-2.43 343.96-4.91 341.67-7.4 340.45-10.81 339.22-14.23 339.22-18.23L339.22-18.23Q339.22-22.3 340.62-25.71 342.02-29.13 344.53-31.6 347.05-34.08 350.55-35.45 354.05-36.83 358.27-36.83L358.27-36.83Q360.32-36.83 362.13-36.46 363.95-36.1 365.52-35.46 367.1-34.83 368.42-33.94 369.75-33.05 370.77-31.98L370.77-31.98 367.92-28.15Q367.65-27.8 367.27-27.51 366.9-27.23 366.22-27.23L366.22-27.23Q365.77-27.23 365.37-27.43 364.97-27.63 364.52-27.91 364.07-28.2 363.53-28.54 363-28.88 362.26-29.16 361.52-29.45 360.53-29.65 359.55-29.85 358.22-29.85L358.22-29.85Q355.92-29.85 354.02-29.04 352.12-28.23 350.76-26.71 349.4-25.2 348.63-23.05 347.87-20.9 347.87-18.23L347.87-18.23Q347.87-15.43 348.63-13.25 349.4-11.08 350.71-9.59 352.02-8.1 353.77-7.33 355.52-6.55 357.52-6.55L357.52-6.55Q358.67-6.55 359.62-6.66 360.57-6.78 361.38-7.05 362.2-7.33 362.93-7.76 363.67-8.2 364.42-8.85L364.42-8.85Q364.72-9.1 365.07-9.26 365.42-9.43 365.8-9.43ZM383.42-36.43L383.42 0 374.92 0 374.92-36.43 383.42-36.43ZM409.97-36.43L424.07 0 417.52 0Q416.42 0 415.7-0.51 414.99-1.03 414.72-1.83L414.72-1.83 412.57-8.18 398.72-8.18 396.57-1.83Q396.32-1.13 395.59-0.56 394.87 0 393.82 0L393.82 0 387.22 0 401.32-36.43 409.97-36.43ZM404.02-23.85L400.67-13.93 410.62-13.93 407.27-23.9Q406.94-24.85 406.5-26.14 406.07-27.43 405.64-28.93L405.64-28.93Q405.24-27.4 404.82-26.1 404.39-24.8 404.02-23.85L404.02-23.85ZM449.41-32.95L447.31-29.03Q446.94-28.43 446.53-28.13 446.11-27.83 445.46-27.83L445.46-27.83Q444.89-27.83 444.23-28.19 443.56-28.55 442.73-29 441.89-29.45 440.81-29.81 439.74-30.18 438.36-30.18L438.36-30.18Q435.99-30.18 434.83-29.16 433.66-28.15 433.66-26.43L433.66-26.43Q433.66-25.33 434.36-24.6 435.06-23.88 436.2-23.35 437.34-22.83 438.8-22.39 440.26-21.95 441.79-21.41 443.31-20.88 444.78-20.15 446.24-19.43 447.38-18.3 448.51-17.18 449.21-15.56 449.91-13.95 449.91-11.68L449.91-11.68Q449.91-9.15 449.04-6.95 448.16-4.75 446.5-3.11 444.84-1.48 442.4-0.54 439.96 0.4 436.86 0.4L436.86 0.4Q435.16 0.4 433.4 0.05 431.64-0.3 429.99-0.94 428.34-1.58 426.89-2.45 425.44-3.33 424.36-4.4L424.36-4.4 426.86-8.35Q427.14-8.8 427.64-9.08 428.14-9.35 428.71-9.35L428.71-9.35Q429.46-9.35 430.23-8.88 430.99-8.4 431.95-7.83 432.91-7.25 434.16-6.78 435.41-6.3 437.11-6.3L437.11-6.3Q439.41-6.3 440.69-7.31 441.96-8.33 441.96-10.53L441.96-10.53Q441.96-11.8 441.26-12.6 440.56-13.4 439.43-13.93 438.29-14.45 436.84-14.85 435.39-15.25 433.86-15.74 432.34-16.23 430.89-16.94 429.44-17.65 428.3-18.81 427.16-19.98 426.46-21.71 425.76-23.45 425.76-26L425.76-26Q425.76-28.05 426.59-30 427.41-31.95 429.01-33.48 430.61-35 432.94-35.91 435.26-36.83 438.26-36.83L438.26-36.83Q439.94-36.83 441.53-36.56 443.11-36.3 444.54-35.79 445.96-35.27 447.2-34.56 448.44-33.85 449.41-32.95L449.41-32.95Z" opacity="1" transform="matrix(1,0,0,1,0,0)" fill="#ffffff" class="undefined-text-0" data-fill-palette-color="primary" id="text-0"></path></svg></g></svg></g><g transform="matrix(1,0,0,1,75.54432,40.71827658044971)"><svg viewBox="0 0 244.43135999999998 17.105424456336962" height="17.105424456336962" width="244.43135999999998"><g transform="matrix(1,0,0,1,0,0)"><svg width="244.43135999999998" viewBox="2.2200000286102295 -40.599998474121094 775.4700317382812 54.269996643066406" height="17.105424456336962" data-palette-color="#ffffff"><path d="M21.78-5.59L21.78-5.59 23.17-4Q19.29-0.51 15.65 0.37L15.65 0.37Q14.84 0.56 14.06 0.56L14.06 0.56Q8.72 0.56 5.42-2.83L5.42-2.83Q2.22-6.13 2.22-11.5L2.22-11.5Q2.22-16.87 5.42-20.61L5.42-20.61Q8.98-24.73 14.99-24.73L14.99-24.73Q18.99-24.73 22.07-23.41L22.07-23.41 21.48-18.51 19.95-18.51Q19.95-20.97 16.99-21.63L16.99-21.63Q16.06-21.85 14.4-21.85 12.74-21.85 11.15-21.08 9.55-20.31 8.52-19.04L8.52-19.04Q6.49-16.53 6.49-12.89L6.49-12.89Q6.49-8.42 8.69-5.74L8.69-5.74Q11.06-2.86 14.78-2.86 18.51-2.86 21.78-5.59ZM27.41-11.87L27.41-11.87Q27.41-14.67 28.38-17.09 29.34-19.51 31-21.19L31-21.19Q34.42-24.73 39.43-24.73L39.43-24.73Q45.24-24.73 48.51-21.29L48.51-21.29Q51.61-17.99 51.61-12.67L51.61-12.67Q51.61-6.74 48.09-3.03L48.09-3.03Q44.68 0.56 39.65 0.56L39.65 0.56Q33.91 0.56 30.56-2.98L30.56-2.98Q27.41-6.3 27.41-11.87ZM33.66-19.15Q32.69-17.9 32.19-16.21 31.69-14.53 31.69-12.56 31.69-10.6 32.14-8.73 32.59-6.86 33.54-5.42L33.54-5.42Q35.64-2.29 39.6-2.29L39.6-2.29Q43.31-2.29 45.36-4.74L45.36-4.74Q47.39-7.13 47.39-11.21L47.39-11.21Q47.39-18.43 43.26-20.92L43.26-20.92Q41.72-21.85 39.62-21.85 37.52-21.85 36.08-21.13 34.64-20.41 33.66-19.15ZM71.38-21.56L71.38-21.56Q67.11-21.56 63.45-18.97L63.45-18.97 63.45-2.59 66.55-2.03 66.55 0 56.34 0 56.34-2.03 59.49-2.59 59.49-20.36 56.34-20.92 56.34-22.95 63.45-24.73 63.45-21.56Q68.04-24.73 72.09-24.73L72.09-24.73Q77.17-24.73 78.68-21.51L78.68-21.51Q81.17-23.24 83.54-23.99 85.91-24.73 87.57-24.73L87.57-24.73Q91.28-24.73 93.1-22.88 94.92-21.02 94.92-17.19L94.92-17.19 94.92-2.59 97.99-2.03 97.99 0 87.84 0 87.84-2.03 90.94-2.59 90.94-17.19Q90.94-19.38 89.64-20.56L89.64-20.56Q88.54-21.56 86.91-21.56L86.91-21.56Q82.71-21.56 79.22-19.04L79.22-19.04Q79.34-17.82 79.34-17.19L79.34-17.19 79.34-2.59 82.15-2.03 82.15 0 72.48 0 72.48-2.03 75.34-2.59 75.34-17.19Q75.34-19.38 74.12-20.56L74.12-20.56Q73.07-21.56 71.38-21.56ZM114.08 0.56L114.08 0.56Q110.93 0.56 108.12-0.63L108.12-0.63 108.12 11.08 111.22 11.65 111.22 13.67 100.97 13.67 100.97 11.65 104.14 11.08 104.14-20.53 100.97-21.12 100.97-23.1 108.12-24.73 108.12-21.51Q112.39-24.73 116.57-24.73L116.57-24.73Q121.04-24.73 123.89-21.44L123.89-21.44Q126.8-18.09 126.8-12.67L126.8-12.67Q126.8-7.28 123.58-3.54L123.58-3.54Q120.06 0.56 114.08 0.56ZM108.12-19.04L108.12-19.04 108.12-5.1Q110.22-2.29 114.79-2.29L114.79-2.29Q118.3-2.29 120.5-5.08L120.5-5.08Q122.55-7.64 122.55-11.25L122.55-11.25Q122.55-15.72 120.7-18.51L120.7-18.51Q118.69-21.56 115.25-21.56 111.81-21.56 108.12-19.04ZM133.24-2.59L133.24-20.36 130.12-20.92 130.12-22.95 137.2-24.73 137.2-18.51Q142.81-24.73 145.64-24.73L145.64-24.73Q147.96-24.73 149.92-22.88L149.92-22.88 148.65-18.92 147.5-18.92Q147.5-20.12 145.67-20.7L145.67-20.7Q145.16-20.85 144.64-20.85L144.64-20.85Q142.06-20.85 137.2-15.65L137.2-15.65 137.2-2.59 142.03-2.03 142.03 0 130.12 0 130.12-2.03 133.24-2.59ZM152.38-11.87L152.38-11.87Q152.38-14.67 153.34-17.09 154.31-19.51 155.97-21.19L155.97-21.19Q159.39-24.73 164.39-24.73L164.39-24.73Q170.2-24.73 173.47-21.29L173.47-21.29Q176.57-17.99 176.57-12.67L176.57-12.67Q176.57-6.74 173.06-3.03L173.06-3.03Q169.64 0.56 164.61 0.56L164.61 0.56Q158.87 0.56 155.53-2.98L155.53-2.98Q152.38-6.3 152.38-11.87ZM158.63-19.15Q157.65-17.9 157.15-16.21 156.65-14.53 156.65-12.56 156.65-10.6 157.1-8.73 157.56-6.86 158.51-5.42L158.51-5.42Q160.61-2.29 164.56-2.29L164.56-2.29Q168.27-2.29 170.32-4.74L170.32-4.74Q172.35-7.13 172.35-11.21L172.35-11.21Q172.35-18.43 168.22-20.92L168.22-20.92Q166.69-21.85 164.59-21.85 162.49-21.85 161.05-21.13 159.61-20.41 158.63-19.15ZM196.35-21.56L196.35-21.56Q192.07-21.56 188.41-18.97L188.41-18.97 188.41-2.59 191.51-2.03 191.51 0 181.31 0 181.31-2.03 184.46-2.59 184.46-20.36 181.31-20.92 181.31-22.95 188.41-24.73 188.41-21.56Q193-24.73 197.06-24.73L197.06-24.73Q202.13-24.73 203.65-21.51L203.65-21.51Q206.14-23.24 208.51-23.99 210.87-24.73 212.53-24.73L212.53-24.73Q216.24-24.73 218.06-22.88 219.88-21.02 219.88-17.19L219.88-17.19 219.88-2.59 222.96-2.03 222.96 0 212.8 0 212.8-2.03 215.9-2.59 215.9-17.19Q215.9-19.38 214.61-20.56L214.61-20.56Q213.51-21.56 211.87-21.56L211.87-21.56Q207.68-21.56 204.18-19.04L204.18-19.04Q204.31-17.82 204.31-17.19L204.31-17.19 204.31-2.59 207.11-2.03 207.11 0 197.45 0 197.45-2.03 200.3-2.59 200.3-17.19Q200.3-19.38 199.08-20.56L199.08-20.56Q198.03-21.56 196.35-21.56ZM246.44-5.59L246.44-5.59 247.83-4Q243.95-0.51 240.31 0.37L240.31 0.37Q239.51 0.56 238.73 0.56L238.73 0.56Q233.36 0.56 229.99-2.83L229.99-2.83Q226.64-6.15 226.64-11.5L226.64-11.5Q226.64-16.82 229.79-20.61L229.79-20.61Q233.26-24.73 238.8-24.73L238.8-24.73Q242.63-24.73 245.27-21.97L245.27-21.97Q248.08-19.09 248.08-14.48L248.08-14.48 246.93-13.45 231.01-12.3Q231.06-7.86 233.89-5.2L233.89-5.2Q236.43-2.86 239.8-2.86 243.17-2.86 246.44-5.59ZM231.18-14.6L231.18-14.6 243.73-15.75Q243.56-19.8 240.61-21.31L240.61-21.31Q239.56-21.85 237.92-21.85 236.29-21.85 235-21.04 233.72-20.24 232.89-19.09L232.89-19.09Q231.31-16.92 231.18-14.6ZM258.11-21.29L258.11-7.47Q258.11-2.59 262.06-2.59L262.06-2.59Q264.14-2.59 266.09-4.3L266.09-4.3 267.41-2.69Q265.34-0.98 263.58-0.21 261.82 0.56 260.48 0.56 259.14 0.56 257.88-0.02 256.62-0.61 255.79-1.71L255.79-1.71Q254.15-3.83 254.15-7.74L254.15-7.74 254.15-21.29 251.05-21.29 251.05-23.41 254.15-24.15 254.15-27.42 257.04-30.3 258.11-30.3 258.11-24.15 266.17-24.15 266.17-21.29 258.11-21.29ZM274.98-24.73L274.98-2.59 278.1-2.03 278.1 0 267.85 0 267.85-2.03 271.02-2.59 271.02-20.36 267.85-20.92 267.85-22.95 274.98-24.73ZM270.89-32.19Q270.49-32.62 270.24-33.15 270-33.69 270-34.22 270-34.74 270.24-35.27 270.49-35.79 270.88-36.23L270.88-36.23Q271.78-37.21 272.52-37.21 273.27-37.21 273.79-36.94 274.32-36.67 274.73-36.23L274.73-36.23Q275.64-35.23 275.64-34.46 275.64-33.69 275.38-33.15 275.12-32.62 274.73-32.18L274.73-32.18Q273.81-31.23 273.04-31.23 272.27-31.23 271.78-31.49 271.29-31.76 270.89-32.19ZM296.43-21.56L296.43-21.56Q292.16-21.56 288.5-18.97L288.5-18.97 288.5-2.59 291.6-2.03 291.6 0 281.4 0 281.4-2.03 284.55-2.59 284.55-20.36 281.4-20.92 281.4-22.95 288.5-24.73 288.5-21.56Q293.09-24.73 297.14-24.73L297.14-24.73Q302.22-24.73 303.73-21.51L303.73-21.51Q306.23-23.24 308.59-23.99 310.96-24.73 312.62-24.73L312.62-24.73Q316.33-24.73 318.15-22.88 319.97-21.02 319.97-17.19L319.97-17.19 319.97-2.59 323.05-2.03 323.05 0 312.89 0 312.89-2.03 315.99-2.59 315.99-17.19Q315.99-19.38 314.7-20.56L314.7-20.56Q313.6-21.56 311.96-21.56L311.96-21.56Q307.76-21.56 304.27-19.04L304.27-19.04Q304.39-17.82 304.39-17.19L304.39-17.19 304.39-2.59 307.2-2.03 307.2 0 297.53 0 297.53-2.03 300.39-2.59 300.39-17.19Q300.39-19.38 299.17-20.56L299.17-20.56Q298.12-21.56 296.43-21.56ZM346.53-5.59L346.53-5.59 347.92-4Q344.04-0.51 340.4 0.37L340.4 0.37Q339.6 0.56 338.82 0.56L338.82 0.56Q333.44 0.56 330.08-2.83L330.08-2.83Q326.73-6.15 326.73-11.5L326.73-11.5Q326.73-16.82 329.88-20.61L329.88-20.61Q333.35-24.73 338.89-24.73L338.89-24.73Q342.72-24.73 345.36-21.97L345.36-21.97Q348.17-19.09 348.17-14.48L348.17-14.48 347.02-13.45 331.1-12.3Q331.15-7.86 333.98-5.2L333.98-5.2Q336.52-2.86 339.89-2.86 343.26-2.86 346.53-5.59ZM331.27-14.6L331.27-14.6 343.82-15.75Q343.65-19.8 340.7-21.31L340.7-21.31Q339.65-21.85 338.01-21.85 336.37-21.85 335.09-21.04 333.81-20.24 332.98-19.09L332.98-19.09Q331.39-16.92 331.27-14.6ZM366.43-21.56L366.43-21.56Q362.69-21.56 358.93-18.97L358.93-18.97 358.93-2.59 362.03-2.03 362.03 0 351.78 0 351.78-2.03 354.95-2.59 354.95-20.36 351.78-20.92 351.78-22.95 358.51-24.73 358.51-21.56Q363.45-24.73 367.67-24.73L367.67-24.73Q372.75-24.73 374.29-20.51L374.29-20.51Q374.8-19.09 374.8-17.19L374.8-17.19 374.8-2.59 377.9-2.03 377.9 0 367.67 0 367.67-2.03 370.82-2.59 370.82-16.72Q370.82-21.56 366.43-21.56ZM387.39-21.29L387.39-7.47Q387.39-2.59 391.35-2.59L391.35-2.59Q393.42-2.59 395.38-4.3L395.38-4.3 396.7-2.69Q394.62-0.98 392.86-0.21 391.11 0.56 389.76 0.56 388.42 0.56 387.16-0.02 385.91-0.61 385.07-1.71L385.07-1.71Q383.44-3.83 383.44-7.74L383.44-7.74 383.44-21.29 380.34-21.29 380.34-23.41 383.44-24.15 383.44-27.42 386.32-30.3 387.39-30.3 387.39-24.15 395.45-24.15 395.45-21.29 387.39-21.29ZM398.38-11.87L398.38-11.87Q398.38-14.67 399.34-17.09 400.31-19.51 401.97-21.19L401.97-21.19Q405.38-24.73 410.39-24.73L410.39-24.73Q416.2-24.73 419.47-21.29L419.47-21.29Q422.57-17.99 422.57-12.67L422.57-12.67Q422.57-6.74 419.06-3.03L419.06-3.03Q415.64 0.56 410.61 0.56L410.61 0.56Q404.87 0.56 401.53-2.98L401.53-2.98Q398.38-6.3 398.38-11.87ZM404.63-19.15Q403.65-17.9 403.15-16.21 402.65-14.53 402.65-12.56 402.65-10.6 403.1-8.73 403.55-6.86 404.51-5.42L404.51-5.42Q406.61-2.29 410.56-2.29L410.56-2.29Q414.27-2.29 416.32-4.74L416.32-4.74Q418.35-7.13 418.35-11.21L418.35-11.21Q418.35-18.43 414.22-20.92L414.22-20.92Q412.68-21.85 410.59-21.85 408.49-21.85 407.05-21.13 405.6-20.41 404.63-19.15ZM463.58-5.59L463.58-5.59 464.97-4Q461.09-0.51 457.46 0.37L457.46 0.37Q456.65 0.56 455.87 0.56L455.87 0.56Q450.52 0.56 447.23-2.83L447.23-2.83Q444.03-6.13 444.03-11.5L444.03-11.5Q444.03-16.87 447.23-20.61L447.23-20.61Q450.79-24.73 456.8-24.73L456.8-24.73Q460.8-24.73 463.88-23.41L463.88-23.41 463.29-18.51 461.75-18.51Q461.75-20.97 458.8-21.63L458.8-21.63Q457.87-21.85 456.21-21.85 454.55-21.85 452.95-21.08 451.35-20.31 450.33-19.04L450.33-19.04Q448.3-16.53 448.3-12.89L448.3-12.89Q448.3-8.42 450.5-5.74L450.5-5.74Q452.87-2.86 456.59-2.86 460.31-2.86 463.58-5.59ZM469.22-11.87L469.22-11.87Q469.22-14.67 470.18-17.09 471.15-19.51 472.81-21.19L472.81-21.19Q476.23-24.73 481.23-24.73L481.23-24.73Q487.04-24.73 490.31-21.29L490.31-21.29Q493.41-17.99 493.41-12.67L493.41-12.67Q493.41-6.74 489.9-3.03L489.9-3.03Q486.48 0.56 481.45 0.56L481.45 0.56Q475.71 0.56 472.37-2.98L472.37-2.98Q469.22-6.3 469.22-11.87ZM475.47-19.15Q474.49-17.9 473.99-16.21 473.49-14.53 473.49-12.56 473.49-10.6 473.94-8.73 474.4-6.86 475.35-5.42L475.35-5.42Q477.45-2.29 481.4-2.29L481.4-2.29Q485.11-2.29 487.16-4.74L487.16-4.74Q489.19-7.13 489.19-11.21L489.19-11.21Q489.19-18.43 485.06-20.92L485.06-20.92Q483.53-21.85 481.43-21.85 479.33-21.85 477.89-21.13 476.45-20.41 475.47-19.15ZM513.19-21.56L513.19-21.56Q508.91-21.56 505.25-18.97L505.25-18.97 505.25-2.59 508.35-2.03 508.35 0 498.15 0 498.15-2.03 501.3-2.59 501.3-20.36 498.15-20.92 498.15-22.95 505.25-24.73 505.25-21.56Q509.84-24.73 513.9-24.73L513.9-24.73Q518.97-24.73 520.49-21.51L520.49-21.51Q522.98-23.24 525.35-23.99 527.71-24.73 529.37-24.73L529.37-24.73Q533.08-24.73 534.9-22.88 536.72-21.02 536.72-17.19L536.72-17.19 536.72-2.59 539.8-2.03 539.8 0 529.64 0 529.64-2.03 532.74-2.59 532.74-17.19Q532.74-19.38 531.45-20.56L531.45-20.56Q530.35-21.56 528.71-21.56L528.71-21.56Q524.52-21.56 521.02-19.04L521.02-19.04Q521.15-17.82 521.15-17.19L521.15-17.19 521.15-2.59 523.95-2.03 523.95 0 514.29 0 514.29-2.03 517.14-2.59 517.14-17.19Q517.14-19.38 515.92-20.56L515.92-20.56Q514.87-21.56 513.19-21.56ZM582.93-3.56L583.37-1.27Q579.81 0.56 578.22 0.56L578.22 0.56Q574.66 0.56 574.66-2.47L574.66-2.47 574.66-3.22Q574.32-2.71 572.79-1.73 571.26-0.76 570.41-0.37L570.41-0.37Q568.38 0.56 567.33 0.56 566.28 0.56 565.6 0.48 564.92 0.39 564.18 0.15 563.45-0.1 562.74-0.54 562.03-0.98 561.47-1.68L561.47-1.68Q560.23-3.25 560.23-5.76L560.23-5.76Q560.23-9.23 562.69-10.6L562.69-10.6Q564.26-11.5 566-11.72 567.75-11.94 569.19-12.06L569.19-12.06Q571.92-12.3 574.66-12.35L574.66-12.35 574.66-17.48Q574.66-19.6 574.12-20.31L574.12-20.31Q573.22-21.56 571.31-21.56L571.31-21.56Q567.06-21.56 562.96-18.8L562.96-18.8 561.55-20.92Q567.26-24.73 571.78-24.73L571.78-24.73Q575.71-24.73 577.34-22.56L577.34-22.56Q578.61-20.87 578.61-17.77L578.61-17.77 578.61-4.93Q578.61-3.13 579.3-2.88L579.3-2.88Q579.54-2.81 579.93-2.81L579.93-2.81Q580.91-2.81 582.93-3.56L582.93-3.56ZM574.66-5.47L574.66-10.3Q567.72-10.03 565.77-8.91L565.77-8.91Q564.28-8.06 564.28-6.15L564.28-6.15Q564.28-3.39 566.41-2.76L566.41-2.76Q566.99-2.59 567.83-2.59 568.68-2.59 569.8-2.93 570.92-3.27 571.87-3.76L571.87-3.76Q573.68-4.64 574.66-5.47L574.66-5.47ZM623.33-21.56L614.28 0 610.88 0 601.73-21.56 599.53-22.12 599.53-24.15 609.03-24.15 609.03-22.12 606.22-21.56 613.49-3.96 620.36-21.68 617.6-22.12 617.6-24.15 625.53-24.15 625.53-22.12 623.33-21.56ZM646.79-5.59L646.79-5.59 648.18-4Q644.3-0.51 640.67 0.37L640.67 0.37Q639.86 0.56 639.08 0.56L639.08 0.56Q633.71 0.56 630.34-2.83L630.34-2.83Q626.99-6.15 626.99-11.5L626.99-11.5Q626.99-16.82 630.14-20.61L630.14-20.61Q633.61-24.73 639.15-24.73L639.15-24.73Q642.98-24.73 645.62-21.97L645.62-21.97Q648.43-19.09 648.43-14.48L648.43-14.48 647.28-13.45 631.36-12.3Q631.41-7.86 634.24-5.2L634.24-5.2Q636.78-2.86 640.15-2.86 643.52-2.86 646.79-5.59ZM631.53-14.6L631.53-14.6 644.08-15.75Q643.91-19.8 640.96-21.31L640.96-21.31Q639.91-21.85 638.27-21.85 636.64-21.85 635.36-21.04 634.07-20.24 633.24-19.09L633.24-19.09Q631.66-16.92 631.53-14.6ZM654.43-2.59L654.43-20.36 651.31-20.92 651.31-22.95 658.39-24.73 658.39-18.51Q664-24.73 666.83-24.73L666.83-24.73Q669.15-24.73 671.11-22.88L671.11-22.88 669.84-18.92 668.69-18.92Q668.69-20.12 666.86-20.7L666.86-20.7Q666.35-20.85 665.83-20.85L665.83-20.85Q663.25-20.85 658.39-15.65L658.39-15.65 658.39-2.59 663.22-2.03 663.22 0 651.31 0 651.31-2.03 654.43-2.59ZM685.75-24.73L685.75-24.73Q688.8-24.73 691.83-23.54L691.83-23.54 691.83-36.06 688.1-36.82 688.1-38.79 695.79-40.6 695.79-3.91Q695.79-2.81 697.02-2.81 698.25-2.81 700.11-3.56L700.11-3.56 700.62-1.27Q697.13 0.56 695.4 0.56L695.4 0.56Q692.88 0.56 692.1-1.07L692.1-1.07Q691.83-1.66 691.83-2.47L691.83-2.47Q690-0.85 687.93-0.15 685.85 0.56 683.62 0.56 681.38 0.56 679.31-0.29 677.23-1.15 675.84-2.73L675.84-2.73Q673.13-5.83 673.13-11.5L673.13-11.5Q673.13-16.92 676.33-20.61L676.33-20.61Q679.87-24.73 685.75-24.73ZM685.75-2.86L685.75-2.86Q688.22-2.86 691.83-5.18L691.83-5.18 691.83-19.04Q689.73-21.85 685.14-21.85L685.14-21.85Q681.6-21.85 679.41-18.99L679.41-18.99Q677.35-16.28 677.35-12.01L677.35-12.01Q677.35-8.13 679.31-5.64L679.31-5.64Q681.46-2.86 685.75-2.86ZM724.74-3.56L725.18-1.27Q721.61 0.56 720.03 0.56L720.03 0.56Q716.46 0.56 716.46-2.47L716.46-2.47 716.46-3.22Q716.12-2.71 714.6-1.73 713.07-0.76 712.22-0.37L712.22-0.37Q710.19 0.56 709.14 0.56 708.09 0.56 707.41 0.48 706.72 0.39 705.99 0.15 705.26-0.1 704.55-0.54 703.84-0.98 703.28-1.68L703.28-1.68Q702.03-3.25 702.03-5.76L702.03-5.76Q702.03-9.23 704.5-10.6L704.5-10.6Q706.06-11.5 707.81-11.72 709.55-11.94 710.99-12.06L710.99-12.06Q713.73-12.3 716.46-12.35L716.46-12.35 716.46-17.48Q716.46-19.6 715.93-20.31L715.93-20.31Q715.02-21.56 713.12-21.56L713.12-21.56Q708.87-21.56 704.77-18.8L704.77-18.8 703.35-20.92Q709.07-24.73 713.58-24.73L713.58-24.73Q717.51-24.73 719.15-22.56L719.15-22.56Q720.42-20.87 720.42-17.77L720.42-17.77 720.42-4.93Q720.42-3.13 721.1-2.88L721.1-2.88Q721.35-2.81 721.74-2.81L721.74-2.81Q722.71-2.81 724.74-3.56L724.74-3.56ZM716.46-5.47L716.46-10.3Q709.53-10.03 707.58-8.91L707.58-8.91Q706.09-8.06 706.09-6.15L706.09-6.15Q706.09-3.39 708.21-2.76L708.21-2.76Q708.8-2.59 709.64-2.59 710.48-2.59 711.6-2.93 712.73-3.27 713.68-3.76L713.68-3.76Q715.49-4.64 716.46-5.47L716.46-5.47ZM739.97-24.73L739.97-24.73Q743.02-24.73 746.05-23.54L746.05-23.54 746.05-36.06 742.32-36.82 742.32-38.79 750.01-40.6 750.01-3.91Q750.01-2.81 751.24-2.81 752.47-2.81 754.33-3.56L754.33-3.56 754.84-1.27Q751.35 0.56 749.62 0.56L749.62 0.56Q747.1 0.56 746.32-1.07L746.32-1.07Q746.05-1.66 746.05-2.47L746.05-2.47Q744.22-0.85 742.14-0.15 740.07 0.56 737.84 0.56 735.6 0.56 733.53-0.29 731.45-1.15 730.06-2.73L730.06-2.73Q727.35-5.83 727.35-11.5L727.35-11.5Q727.35-16.92 730.55-20.61L730.55-20.61Q734.09-24.73 739.97-24.73ZM739.97-2.86L739.97-2.86Q742.44-2.86 746.05-5.18L746.05-5.18 746.05-19.04Q743.95-21.85 739.36-21.85L739.36-21.85Q735.82-21.85 733.62-18.99L733.62-18.99Q731.57-16.28 731.57-12.01L731.57-12.01Q731.57-8.13 733.53-5.64L733.53-5.64Q735.67-2.86 739.97-2.86ZM776.05-5.59L776.05-5.59 777.44-4Q773.56-0.51 769.93 0.37L769.93 0.37Q769.12 0.56 768.34 0.56L768.34 0.56Q762.97 0.56 759.6-2.83L759.6-2.83Q756.25-6.15 756.25-11.5L756.25-11.5Q756.25-16.82 759.4-20.61L759.4-20.61Q762.87-24.73 768.41-24.73L768.41-24.73Q772.24-24.73 774.88-21.97L774.88-21.97Q777.69-19.09 777.69-14.48L777.69-14.48 776.54-13.45 760.62-12.3Q760.67-7.86 763.5-5.2L763.5-5.2Q766.04-2.86 769.41-2.86 772.78-2.86 776.05-5.59ZM760.79-14.6L760.79-14.6 773.34-15.75Q773.17-19.8 770.22-21.31L770.22-21.31Q769.17-21.85 767.53-21.85 765.9-21.85 764.62-21.04 763.33-20.24 762.5-19.09L762.5-19.09Q760.92-16.92 760.79-14.6Z" opacity="1" transform="matrix(1,0,0,1,0,0)" fill="#ffffff" class="undefined-text-1" data-fill-palette-color="secondary" id="text-1"></path></svg></g></svg></g></svg></g></svg></g><g transform="matrix(1,0,0,1,150.79262258358037,0)"><svg viewBox="0 0 95.91235483283918 79.91235483283918" height="79.91235483283918" width="95.91235483283918"><g><svg xmlns="http://www.w3.org/2000/svg" xmlns:xlink="http://www.w3.org/1999/xlink" version="1.1" x="8" y="0" viewBox="0 0 100 100" enable-background="new 0 0 100 100" xml:space="preserve" height="79.91235483283918" width="79.91235483283918" class="icon-icon-0" data-fill-palette-color="accent" id="icon-0"><g fill="#bf2051" data-fill-palette-color="accent"><circle cx="47.5" cy="48.5" r="1.5" fill="#bf2051" data-fill-palette-color="accent"></circle><circle cx="37.5" cy="42.5" r="1.5" fill="#bf2051" data-fill-palette-color="accent"></circle><circle cx="27.5" cy="48.5" r="1.5" fill="#bf2051" data-fill-palette-color="accent"></circle><circle cx="17.5" cy="42.5" r="1.5" fill="#bf2051" data-fill-palette-color="accent"></circle><circle cx="67.5" cy="48.5" r="1.5" fill="#bf2051" data-fill-palette-color="accent"></circle><circle cx="57.5" cy="42.5" r="1.5" fill="#bf2051" data-fill-palette-color="accent"></circle><circle cx="7.5" cy="48.5" r="1.5" fill="#bf2051" data-fill-palette-color="accent"></circle><circle cx="87.5" cy="48.5" r="1.5" fill="#bf2051" data-fill-palette-color="accent"></circle><circle cx="37.5" cy="42.5" r="1.5" fill="#bf2051" data-fill-palette-color="accent"></circle><circle cx="17.5" cy="42.5" r="1.5" fill="#bf2051" data-fill-palette-color="accent"></circle><circle cx="57.5" cy="42.5" r="1.5" fill="#bf2051" data-fill-palette-color="accent"></circle><circle cx="17.5" cy="55.5" r="1.5" fill="#bf2051" data-fill-palette-color="accent"></circle><circle cx="57.5" cy="55.5" r="1.5" fill="#bf2051" data-fill-palette-color="accent"></circle><circle cx="27.576" cy="19.891" r="1.9" fill="#bf2051" data-fill-palette-color="accent"></circle><path d="M29.793 22.177l-4.238-0.003c-1.339 0-2.178 1.091-2.178 2.455v5.804c0 1.128 1.49 1.128 1.49 0v-5.65h0.476l-0.001 4.64h4.712l0.002-4.64h0.465v5.65c0 1.137 1.482 1.137 1.479 0v-5.771C32 23.406 31.262 22.177 29.793 22.177z" fill="#bf2051" data-fill-palette-color="accent"></path><path d="M25.342 34.192l-0.001 5.924c0 0.585 0.475 1.06 1.061 1.06 0.585 0 1.059-0.475 1.059-1.06l0.001-5.924H25.342z" fill="#bf2051" data-fill-palette-color="accent"></path><polygon points="27.461,33.852 27.461,31.222 27.934,31.222 27.934,33.852 30.052,33.852 30.054,29.763 25.342,29.763    25.342,33.852  " fill="#bf2051" data-fill-palette-color="accent"></polygon><path d="M27.933 34.192l-0.002 5.924c0 0.585 0.475 1.06 1.061 1.06s1.059-0.475 1.059-1.06l0.002-5.924H27.933z" fill="#bf2051" data-fill-palette-color="accent"></path><circle cx="47.5" cy="35.5" r="1.5" fill="#bf2051" data-fill-palette-color="accent"></circle><circle cx="67.5" cy="35.5" r="1.5" fill="#bf2051" data-fill-palette-color="accent"></circle><circle cx="87.5" cy="35.5" r="1.5" fill="#bf2051" data-fill-palette-color="accent"></circle><path d="M50 0C22.386 0 0 22.385 0 50c0 27.614 22.386 50 50 50s50-22.387 50-50C100 22.385 77.614 0 50 0zM30.876 91.802c0.048-0.028 0.103-0.058 0.15-0.087C33.455 90.258 35.551 89 39.997 89c4.446 0 6.542 1.258 8.971 2.715 2.493 1.496 5.318 3.182 10.57 3.276C56.458 95.644 53.271 96 50 96 43.173 96 36.701 94.488 30.876 91.802zM79.798 85.004c-5.422 0.042-8.294 1.76-10.83 3.281C66.54 89.742 64.442 91 59.996 91s-6.543-1.258-8.971-2.715C48.459 86.745 45.55 85 39.997 85s-8.462 1.745-11.028 3.285c-0.779 0.468-1.534 0.905-2.336 1.295-2.266-1.348-4.408-2.883-6.404-4.585 5.401-0.048 8.269-1.762 10.798-3.28C33.455 80.258 35.551 79 39.997 79c4.446 0 6.542 1.258 8.971 2.715C51.533 83.255 54.442 85 59.996 85c5.555 0 8.464-1.745 11.03-3.285C73.454 80.258 75.552 79 79.998 79c2.122 0 3.704 0.291 5.047 0.75C83.439 81.639 81.684 83.396 79.798 85.004zM87.58 76.445C85.664 75.62 83.303 75 79.998 75c-5.555 0-8.463 1.745-11.03 3.285C66.54 79.742 64.442 81 59.996 81s-6.543-1.258-8.971-2.715C48.459 76.745 45.55 75 39.997 75s-8.462 1.745-11.028 3.285C26.541 79.742 24.444 81 19.999 81c-1.79 0-3.197-0.206-4.399-0.546-2.247-2.537-4.235-5.308-5.885-8.296C12.115 73.571 14.973 75 19.999 75c5.554 0 8.462-1.745 11.028-3.285C33.455 70.258 35.551 69 39.997 69c4.446 0 6.542 1.258 8.971 2.715C51.533 73.255 54.442 75 59.996 75c5.555 0 8.464-1.745 11.03-3.285C73.454 70.258 75.552 69 79.998 69s6.544 1.258 8.972 2.715c0.382 0.229 0.777 0.463 1.183 0.694C89.37 73.806 88.498 75.144 87.58 76.445zM91.953 68.828c-0.308-0.177-0.613-0.355-0.925-0.543C88.461 66.745 85.553 65 79.998 65s-8.463 1.745-11.03 3.285C66.54 69.742 64.442 71 59.996 71s-6.543-1.258-8.971-2.715C48.459 66.745 45.55 65 39.997 65s-8.462 1.745-11.028 3.285C26.541 69.742 24.444 71 19.999 71c-4.446 0-6.542-1.258-8.971-2.715-1.198-0.719-2.479-1.479-4.062-2.088-0.786-2.08-1.434-4.228-1.913-6.438 1.468 0.498 2.653 1.196 3.917 1.955C11.536 63.255 14.445 65 19.999 65s8.462-1.745 11.028-3.285C33.455 60.258 35.551 59 39.997 59c4.446 0 6.542 1.258 8.971 2.715C51.533 63.255 54.442 65 59.996 65c5.555 0 8.464-1.745 11.03-3.285C73.454 60.258 75.552 59 79.998 59s6.544 1.258 8.972 2.715c1.384 0.83 2.875 1.717 4.819 2.359C93.265 65.701 92.648 67.285 91.953 68.828zM91.028 58.285C88.461 56.745 85.553 55 79.998 55s-8.463 1.745-11.03 3.285C66.54 59.742 64.442 61 59.996 61s-6.543-1.258-8.971-2.715C48.459 56.745 45.55 55 39.997 55s-8.462 1.745-11.028 3.285C26.541 59.742 24.444 61 19.999 61c-4.446 0-6.542-1.258-8.971-2.715-1.795-1.077-3.776-2.244-6.696-2.854C4.121 53.648 4 51.839 4 50c0-4.833 0.754-9.492 2.142-13.871C6.38 36.642 6.896 37 7.5 37 8.328 37 9 36.329 9 35.5S8.328 34 7.5 34c-0.253 0-0.487 0.068-0.696 0.179C13.269 16.585 30.192 4 50 4c9.998 0 19.253 3.216 26.808 8.654-3.175 0.928-6.069 2.671-7.65 4.167-3.195-3.025-11.766-7.091-17.158-3.326 0 0 3.731 2.487 7.851 4.494-2.998 1.129-5.892 3.094-7.562 6.196 0 0 12.043 0 16.575-3.243C68.76 30.691 71.622 40.125 74.918 46h7.979c-2.66-5.146-8.519-13.483-12.763-24.627 4.947 2.811 15.893 2.813 15.893 2.813-1.671-3.103-4.564-5.067-7.562-6.196 1.029-0.501 2.024-1.03 2.952-1.545C90.382 24.844 96 36.775 96 50c0 3.507-0.408 6.919-1.154 10.204C93.425 59.707 92.263 59.026 91.028 58.285z" fill="#bf2051" data-fill-palette-color="accent"></path></g></svg></g></svg></g><g><rect width="74.2595025835804" height="2.970704231201307" y="75.94165060163787" x="246.70497741641955" fill="#ffffff" data-fill-palette-color="secondary"></rect><rect width="74.2595025835804" height="2.970704231201307" y="75.94165060163787" x="76.53311999999997" fill="#ffffff" data-fill-palette-color="secondary"></rect></g></svg></g></svg><rect width="395.52" height="155.48277153738792" fill="none" stroke="none" visibility="hidden"></rect></g></svg></g></svg>